<svg width="180" height="136" viewBox="0 0 180 136" xmlns="http://www.w3.org/2000/svg" fill="black">
  <g transform="translate(-884.184,-650.24)">
    <g transform="matrix(0.764,0,0,1,309.843,252.667)">
      <path d="M861.458,427.505L861.458,451.139L845.995,451.139L782.457,451.139L782.457,533.352L751.531,533.352L751.531,439.322C751.531,432.795 758.454,427.505 766.994,427.505L861.458,427.505Z"/>
    </g>
    <g transform="matrix(0.764,0,0,1,309.843,252.667)">
      <rect x="751.531" y="468.611" width="109.927" height="23.635"/>
    </g>
    <g transform="matrix(0.891,0,0,1,262.912,221.837)">
      <path d="M872.683,523.075L817.449,523.075C810.122,523.075 804.183,517.784 804.183,511.258L804.183,470.152C804.183,463.625 810.122,458.334 817.449,458.334L885.949,458.334C893.276,458.334 899.216,463.625 899.216,470.152L899.216,552.364C899.216,558.89 893.276,564.181 885.949,564.181L740.337,564.181L740.337,540.547L872.683,540.547L872.683,523.075ZM872.683,499.44L872.683,481.969L830.716,481.969L830.716,499.44L872.683,499.44Z"/>
    </g>
    <g transform="translate(152.293,222.479)">
      <circle cx="869.117" cy="438.68" r="10.919"/>
    </g>
  </g>
</svg>
